<svg xmlns="http://www.w3.org/2000/svg" viewBox="0 0 1200 700" width="1200" height="700" role="img" aria-label="Baku City Circuit schematic">
  <rect width="1200" height="700" rx="40" fill="#0b1322"/>
  <path d="M160 546 C140 406 176 266 316 204 L466 184 C566 180 602 126 616 88 C636 54 686 54 708 90 L760 170 C782 202 820 222 862 232 L1026 276 C1082 290 1098 356 1060 394 L894 540 C854 576 820 624 786 626 L306 620 C210 620 174 594 160 546 Z"
        fill="none" stroke="#f8fafc" stroke-width="24" stroke-linecap="round" stroke-linejoin="round"/>
  <path d="M160 546 C140 406 176 266 316 204 L466 184 C566 180 602 126 616 88 C636 54 686 54 708 90 L760 170 C782 202 820 222 862 232 L1026 276 C1082 290 1098 356 1060 394 L894 540 C854 576 820 624 786 626 L306 620 C210 620 174 594 160 546 Z"
        fill="none" stroke="#60a5fa" stroke-width="8" stroke-dasharray="24 16" opacity="0.55"/>
</svg>